<svg width="512" height="512" fill="none" xmlns="http://www.w3.org/2000/svg"><g clip-path="url(#a)" fill="#364494"><path d="m78.263 243.611 2.462 7.648h.82l2.463-7.648L126.911 175h29.36v142.857h-31.822v-76.056l2.257-13.481h-.821l-5.336 13.279-28.533 45.675H70.255L41.72 241.599l-5.34-13.279h-.82l2.262 13.481v76.056H6V175h29.355l42.908 68.611Zm114.106-11.468-21.763-21.329L207.148 175h25.046v115.695h18.678v27.162h-69.18v-27.162h18.679v-63.783l2.668-7.042-.615-.403-4.31 7.042-5.745 5.634Zm144.5 4.626 8.624-9.656v-14.889l-8.213-8.05h-37.157l-26.072 8.05-8.824-27.768L296.224 175h55.015l26.071 25.755v36.216l-20.321 22.335-53.378 29.376h73.699v29.175H267.484v-43.059l69.385-38.029ZM503.948 175v29.174H431.07v23.543h48.654L506 253.27v39.034l-26.276 25.553h-53.169l-30.795-10.061 9.444-27.766 26.482 8.652h34.078l8.415-8.048V264.94l-8.415-8.047h-66.51V175h104.694Z"/></g><defs><clipPath id="a"><path fill="#fff" transform="translate(6 175)" d="M0 0h500v142.857H0z"/></clipPath></defs></svg>