<svg width="98" height="28" fill="none" xmlns="http://www.w3.org/2000/svg"><g clip-path="url(#a)" fill="#fff"><path d="m14.163 13.448.483 1.499h.161l.483-1.5L23.699 0h5.754v28h-6.237V13.093l.442-2.642h-.16l-1.046 2.602-5.593 8.953h-4.265l-5.593-8.953-1.046-2.602h-.161l.443 2.642V28H0V0h5.754l8.41 13.448ZM36.528 11.2l-4.265-4.18L39.425 0h4.909v22.676h3.66V28H34.437v-5.324h3.66V10.175l.524-1.38-.12-.08-.846 1.38-1.126 1.105Zm28.322.907 1.69-1.893V7.296l-1.61-1.578h-7.282l-5.11 1.578-1.73-5.443L56.885 0h10.783l5.11 5.048v7.098l-3.983 4.378-10.462 5.758h14.445V28H51.25v-8.44l13.6-7.453ZM97.598 0v5.718H83.314v4.614h9.536L98 15.341v7.65L92.85 28H82.429l-6.036-1.972 1.851-5.442 5.19 1.696h6.68l1.649-1.578v-3.076l-1.65-1.577H77.079V0h20.52Z"/></g><defs><clipPath id="a"><path fill="#fff" d="M0 0h98v28H0z"/></clipPath></defs></svg>