<svg width="189" height="217" fill="none" xmlns="http://www.w3.org/2000/svg"><path d="m98.423 2.055 85.654 49.619A7.876 7.876 0 0 1 188 58.492v99.238a7.877 7.877 0 0 1-3.923 6.818l-85.654 49.619a7.824 7.824 0 0 1-7.846 0L4.923 164.548A7.878 7.878 0 0 1 1 157.73V58.492a7.877 7.877 0 0 1 3.923-6.818l85.654-49.62a7.823 7.823 0 0 1 7.846 0Z" fill="#03174B" stroke="#F4F4F4" stroke-width="2"/><g clip-path="url(#a)" fill="#fff"><path d="m60.73 127.036.468 1.453h.156l.468-1.453L69.973 114h5.579v27.143h-6.047v-14.451l.43-2.561h-.157l-1.014 2.523-5.421 8.678h-4.135l-5.421-8.678-1.015-2.523h-.156l.43 2.561v14.451H47V114h5.578l8.152 13.036Zm21.68-2.179-4.135-4.052L85.218 114h4.759v21.982h3.549v5.161H80.382v-5.161h3.549v-12.119l.506-1.338-.117-.076-.818 1.338-1.092 1.07Zm27.455.879 1.639-1.835v-2.828l-1.561-1.53h-7.06l-4.953 1.53-1.677-5.276 5.889-1.797h10.453l4.954 4.893v6.881l-3.861 4.244-10.142 5.582h14.003v5.543H96.682v-8.181l13.183-7.226ZM141.61 114v5.543h-13.847v4.473h9.244l4.993 4.855v7.417l-4.993 4.855h-10.102l-5.851-1.912 1.795-5.275 5.031 1.644h6.475l1.599-1.53v-2.981l-1.599-1.529h-12.637V114h19.892Z"/></g><path d="M47.66 95.21c-1.64 0-3.1-.35-4.38-1.05a8.07 8.07 0 0 1-3.03-2.94c-.74-1.24-1.11-2.65-1.11-4.23 0-1.6.37-3.01 1.11-4.23a7.848 7.848 0 0 1 3.03-2.91c1.28-.7 2.74-1.05 4.38-1.05 1.66 0 3.13.35 4.41 1.05 1.3.7 2.31 1.66 3.03 2.88.74 1.22 1.11 2.64 1.11 4.26 0 1.58-.37 2.99-1.11 4.23-.72 1.24-1.73 2.22-3.03 2.94-1.28.7-2.75 1.05-4.41 1.05Zm0-3.21c.92 0 1.74-.2 2.46-.6.72-.4 1.28-.98 1.68-1.74.42-.76.63-1.65.63-2.67 0-1.04-.21-1.93-.63-2.67a4.15 4.15 0 0 0-1.68-1.74c-.72-.4-1.53-.6-2.43-.6-.92 0-1.74.2-2.46.6-.7.4-1.26.98-1.68 1.74-.42.74-.63 1.63-.63 2.67 0 1.02.21 1.91.63 2.67.42.76.98 1.34 1.68 1.74.72.4 1.53.6 2.43.6Zm14.999 3V81.26l.87.9h-6.51v-3.18h15v3.18h-6.48l.87-.9V95h-3.75Zm23.57 0-5.79-7.68 3.06-1.89 7.14 9.57h-4.41Zm-11.49 0V78.98h3.75V95h-3.75Zm2.64-6.42v-3.12h5.43v3.12h-5.43Zm6.48-1.14-3.51-.42 5.88-8.04h4.02l-6.39 8.46Zm18.305 7.77c-1.3 0-2.49-.3-3.57-.9-1.06-.6-1.91-1.5-2.55-2.7-.62-1.22-.93-2.76-.93-4.62 0-1.88.3-3.42.9-4.62.62-1.2 1.46-2.09 2.52-2.67 1.06-.6 2.27-.9 3.63-.9 1.58 0 2.97.34 4.17 1.02a7.44 7.44 0 0 1 2.88 2.85c.72 1.22 1.08 2.66 1.08 4.32 0 1.66-.36 3.11-1.08 4.35a7.44 7.44 0 0 1-2.88 2.85c-1.2.68-2.59 1.02-4.17 1.02Zm-8.88 5.61V78.98h3.57v3.78l-.12 4.26.3 4.26v9.54h-3.75Zm8.46-8.82c.9 0 1.7-.2 2.4-.6.72-.4 1.29-.98 1.71-1.74.42-.76.63-1.65.63-2.67 0-1.04-.21-1.93-.63-2.67-.42-.76-.99-1.34-1.71-1.74-.7-.4-1.5-.6-2.4-.6-.9 0-1.71.2-2.43.6-.72.4-1.29.98-1.71 1.74-.42.74-.63 1.63-.63 2.67 0 1.02.21 1.91.63 2.67.42.76.99 1.34 1.71 1.74.72.4 1.53.6 2.43.6Zm19.422 3.21c-1.64 0-3.1-.35-4.38-1.05a8.07 8.07 0 0 1-3.03-2.94c-.74-1.24-1.11-2.65-1.11-4.23 0-1.6.37-3.01 1.11-4.23a7.848 7.848 0 0 1 3.03-2.91c1.28-.7 2.74-1.05 4.38-1.05 1.66 0 3.13.35 4.41 1.05 1.3.7 2.31 1.66 3.03 2.88.74 1.22 1.11 2.64 1.11 4.26 0 1.58-.37 2.99-1.11 4.23-.72 1.24-1.73 2.22-3.03 2.94-1.28.7-2.75 1.05-4.41 1.05Zm0-3.21c.92 0 1.74-.2 2.46-.6.72-.4 1.28-.98 1.68-1.74.42-.76.63-1.65.63-2.67 0-1.04-.21-1.93-.63-2.67a4.15 4.15 0 0 0-1.68-1.74c-.72-.4-1.53-.6-2.43-.6-.92 0-1.74.2-2.46.6-.7.4-1.26.98-1.68 1.74-.42.74-.63 1.63-.63 2.67 0 1.02.21 1.91.63 2.67.42.76.98 1.34 1.68 1.74.72.4 1.53.6 2.43.6Zm12.254 3V78.98h3.75v10.56l8.85-10.56h3.42V95h-3.75V84.44L136.87 95h-3.45Zm7.77-17.91c-1.6 0-2.83-.37-3.69-1.11-.86-.76-1.3-1.86-1.32-3.3h2.49c.02.72.24 1.29.66 1.71.44.42 1.05.63 1.83.63.76 0 1.36-.21 1.8-.63.46-.42.7-.99.72-1.71h2.55c-.02 1.44-.47 2.54-1.35 3.3-.86.74-2.09 1.11-3.69 1.11Z" fill="#fff"/><defs><clipPath id="a"><path fill="#fff" transform="translate(47 114)" d="M0 0h95v27.143H0z"/></clipPath></defs></svg>