<svg width="189" height="867" fill="none" xmlns="http://www.w3.org/2000/svg"><path d="m192.423 1.355 85.654 49.619A7.876 7.876 0 0 1 282 57.79v99.239a7.878 7.878 0 0 1-3.923 6.818l-85.654 49.618a7.82 7.82 0 0 1-7.846 0l-85.654-49.618A7.88 7.88 0 0 1 95 157.03V57.791a7.877 7.877 0 0 1 3.923-6.817l85.654-49.62a7.823 7.823 0 0 1 7.846 0Zm-188 0 85.654 49.619A7.877 7.877 0 0 1 94 57.79v99.239a7.879 7.879 0 0 1-3.923 6.818L4.423 213.466a7.82 7.82 0 0 1-7.846 0l-85.654-49.618A7.88 7.88 0 0 1-93 157.03V57.791a7.877 7.877 0 0 1 3.923-6.817l85.654-49.62a7.823 7.823 0 0 1 7.846 0Zm0 652 85.654 49.619A7.876 7.876 0 0 1 94 709.791v99.239a7.879 7.879 0 0 1-3.923 6.818L4.423 865.466a7.82 7.82 0 0 1-7.846 0l-85.654-49.618A7.88 7.88 0 0 1-93 809.03v-99.239a7.876 7.876 0 0 1 3.923-6.817l85.654-49.619a7.82 7.82 0 0 1 7.846 0Zm188 0 85.654 49.619a7.876 7.876 0 0 1 3.923 6.817v99.239a7.878 7.878 0 0 1-3.923 6.818l-85.654 49.618a7.82 7.82 0 0 1-7.846 0l-85.654-49.618A7.88 7.88 0 0 1 95 809.03v-99.239a7.876 7.876 0 0 1 3.923-6.817l85.654-49.619a7.82 7.82 0 0 1 7.846 0Zm-94-163 85.654 49.619a7.876 7.876 0 0 1 3.923 6.817v99.239a7.878 7.878 0 0 1-3.923 6.818l-85.654 49.618a7.82 7.82 0 0 1-7.846 0L4.923 652.848A7.88 7.88 0 0 1 1 646.03v-99.239a7.877 7.877 0 0 1 3.923-6.817l85.654-49.619a7.82 7.82 0 0 1 7.846 0Zm94-163 85.654 49.619a7.876 7.876 0 0 1 3.923 6.817v99.239a7.878 7.878 0 0 1-3.923 6.818l-85.654 49.618a7.82 7.82 0 0 1-7.846 0l-85.654-49.618A7.88 7.88 0 0 1 95 483.03v-99.239a7.876 7.876 0 0 1 3.923-6.817l85.654-49.619a7.82 7.82 0 0 1 7.846 0Zm-188 0 85.654 49.619A7.876 7.876 0 0 1 94 383.791v99.239a7.879 7.879 0 0 1-3.923 6.818L4.423 539.466a7.82 7.82 0 0 1-7.846 0l-85.654-49.618A7.88 7.88 0 0 1-93 483.03v-99.239a7.876 7.876 0 0 1 3.923-6.817l85.654-49.619a7.82 7.82 0 0 1 7.846 0Zm94-163 85.654 49.619a7.876 7.876 0 0 1 3.923 6.817v99.239a7.878 7.878 0 0 1-3.923 6.818l-85.654 49.618a7.82 7.82 0 0 1-7.846 0L4.923 326.848A7.88 7.88 0 0 1 1 320.03v-99.239a7.877 7.877 0 0 1 3.923-6.817l85.654-49.619a7.82 7.82 0 0 1 7.846 0Zm188 0 85.654 49.619a7.876 7.876 0 0 1 3.923 6.817v99.239a7.878 7.878 0 0 1-3.923 6.818l-85.654 49.618a7.82 7.82 0 0 1-7.846 0l-85.654-49.618A7.878 7.878 0 0 1 189 320.03v-99.239a7.876 7.876 0 0 1 3.923-6.817l85.654-49.619a7.82 7.82 0 0 1 7.846 0Z" fill="#03174B" stroke="#F4F4F4" stroke-width="2"/></svg>