<svg xmlns="http://www.w3.org/2000/svg" width="25" height="26" fill="none"><path d="M4.001 1.889c0-.236.106-.462.293-.629.188-.166.442-.26.707-.26h9c3.272 0 5.8 1.099 7.497 2.798A8.59 8.59 0 0 1 24 9.888c0 2.19-.82 4.41-2.502 6.09-1.7 1.7-4.226 2.799-7.497 2.799H3.416l5.293 4.704c.093.082.167.18.217.288a.805.805 0 0 1 0 .682.89.89 0 0 1-.217.288 1.018 1.018 0 0 1-.325.193 1.111 1.111 0 0 1-.766 0 1.018 1.018 0 0 1-.325-.193l-7-6.222a.89.89 0 0 1-.217-.288.804.804 0 0 1 0-.682.89.89 0 0 1 .218-.288l7-6.222c.187-.167.442-.26.707-.26.266 0 .52.093.708.26a.843.843 0 0 1 .293.63.843.843 0 0 1-.293.629l-5.293 4.703H14c2.728 0 4.7-.901 6.001-2.2 1.318-1.32 1.998-3.1 1.998-4.91s-.68-3.591-1.998-4.91c-1.3-1.3-3.273-2.201-6.001-2.201H5a1.07 1.07 0 0 1-.707-.26.842.842 0 0 1-.293-.63Z" fill="#2E345B"/></svg>