<svg width="869" height="56" fill="none" xmlns="http://www.w3.org/2000/svg"><path d="M25.07 30.936c-1.81.767-3.573 1.35-5.29 1.748a23.062 23.062 0 0 1-4.922.552c-3.925 0-6.977-.95-9.154-2.852-2.147-1.901-3.22-4.615-3.22-8.142V11.8h4.508v9.936c0 2.392.736 4.232 2.208 5.52 1.472 1.288 3.527 1.932 6.164 1.932 1.564 0 3.159-.2 4.784-.598a23.377 23.377 0 0 0 4.83-1.748l.092 4.094ZM24.288 44V11.8h4.554V44h-4.554Zm18.691 0V22.334l1.104 1.15H34.055V19.62H56.32v3.864h-9.982l1.058-1.15V44H42.98Zm27.22.276c-2.454 0-4.631-.537-6.532-1.61a11.984 11.984 0 0 1-4.509-4.416c-1.104-1.901-1.656-4.048-1.656-6.44 0-2.423.552-4.57 1.656-6.44A11.647 11.647 0 0 1 63.666 21c1.902-1.073 4.08-1.61 6.532-1.61 2.423 0 4.585.537 6.487 1.61 1.931 1.043 3.434 2.5 4.507 4.37 1.105 1.84 1.657 3.987 1.657 6.44 0 2.423-.553 4.57-1.657 6.44-1.073 1.87-2.575 3.343-4.507 4.416-1.902 1.073-4.064 1.61-6.487 1.61Zm0-3.864c1.564 0 2.959-.353 4.186-1.058a7.467 7.467 0 0 0 2.944-2.99c.705-1.319 1.058-2.837 1.058-4.554 0-1.748-.353-3.25-1.058-4.508a7.467 7.467 0 0 0-2.944-2.99c-1.227-.705-2.623-1.058-4.187-1.058-1.563 0-2.959.353-4.185 1.058-1.227.705-2.209 1.702-2.945 2.99-.735 1.257-1.103 2.76-1.103 4.508 0 1.717.367 3.235 1.103 4.554.736 1.288 1.718 2.285 2.945 2.99 1.226.705 2.621 1.058 4.185 1.058Zm42.006 3.864c-2.484 0-4.708-.537-6.67-1.61-1.932-1.073-3.45-2.545-4.554-4.416-1.104-1.87-1.656-4.017-1.656-6.44s.552-4.57 1.656-6.44a11.562 11.562 0 0 1 4.554-4.37c1.962-1.073 4.186-1.61 6.67-1.61 2.208 0 4.17.445 5.888 1.334 1.748.859 3.097 2.147 4.048 3.864l-3.358 2.162c-.798-1.196-1.779-2.07-2.944-2.622a7.941 7.941 0 0 0-3.68-.874c-1.595 0-3.021.353-4.278 1.058-1.258.705-2.254 1.702-2.99 2.99-.736 1.257-1.104 2.76-1.104 4.508 0 1.748.368 3.266 1.104 4.554.736 1.288 1.732 2.285 2.99 2.99 1.257.705 2.683 1.058 4.278 1.058a8.303 8.303 0 0 0 3.68-.828c1.165-.583 2.146-1.472 2.944-2.668l3.358 2.116c-.951 1.687-2.3 2.99-4.048 3.91-1.718.89-3.68 1.334-5.888 1.334Zm26.15 0c-2.607 0-4.907-.537-6.9-1.61-1.963-1.073-3.496-2.545-4.6-4.416-1.074-1.87-1.61-4.017-1.61-6.44s.521-4.57 1.564-6.44c1.073-1.87 2.53-3.327 4.37-4.37 1.87-1.073 3.971-1.61 6.302-1.61 2.361 0 4.446.521 6.256 1.564 1.809 1.043 3.22 2.515 4.232 4.416 1.042 1.87 1.564 4.063 1.564 6.578 0 .184-.016.399-.046.644 0 .245-.016.475-.046.69h-20.746v-3.174h18.446l-1.794 1.104c.03-1.564-.292-2.96-.966-4.186a7.177 7.177 0 0 0-2.806-2.852c-1.166-.705-2.53-1.058-4.094-1.058-1.534 0-2.898.353-4.094 1.058-1.196.675-2.132 1.64-2.806 2.898-.675 1.227-1.012 2.637-1.012 4.232v.736c0 1.625.368 3.082 1.104 4.37.766 1.257 1.824 2.239 3.174 2.944 1.349.705 2.898 1.058 4.646 1.058 1.441 0 2.744-.245 3.91-.736a8.573 8.573 0 0 0 3.128-2.208l2.438 2.852c-1.104 1.288-2.484 2.27-4.14 2.944-1.626.675-3.45 1.012-5.474 1.012ZM156.383 44V19.62h17.94v3.864h-14.582l1.058-1.012V44h-4.416Zm31.825.276c-2.453 0-4.63-.537-6.532-1.61a11.986 11.986 0 0 1-4.508-4.416c-1.104-1.901-1.656-4.048-1.656-6.44 0-2.423.552-4.57 1.656-6.44a11.649 11.649 0 0 1 4.508-4.37c1.902-1.073 4.079-1.61 6.532-1.61 2.423 0 4.585.537 6.486 1.61 1.932 1.043 3.435 2.5 4.508 4.37 1.104 1.84 1.656 3.987 1.656 6.44 0 2.423-.552 4.57-1.656 6.44-1.073 1.87-2.576 3.343-4.508 4.416-1.901 1.073-4.063 1.61-6.486 1.61Zm0-3.864c1.564 0 2.96-.353 4.186-1.058a7.46 7.46 0 0 0 2.944-2.99c.706-1.319 1.058-2.837 1.058-4.554 0-1.748-.352-3.25-1.058-4.508a7.46 7.46 0 0 0-2.944-2.99c-1.226-.705-2.622-1.058-4.186-1.058s-2.959.353-4.186 1.058c-1.226.705-2.208 1.702-2.944 2.99-.736 1.257-1.104 2.76-1.104 4.508 0 1.717.368 3.235 1.104 4.554.736 1.288 1.718 2.285 2.944 2.99 1.227.705 2.622 1.058 4.186 1.058Zm35.499 1.518V23.484h-10.58l-.23 4.692a67.131 67.131 0 0 1-.322 4.462 24.085 24.085 0 0 1-.644 3.91c-.276 1.196-.69 2.177-1.242 2.944a3.47 3.47 0 0 1-2.208 1.426l-4.37-.782c.951.03 1.718-.276 2.3-.92.583-.675 1.028-1.595 1.334-2.76.338-1.165.583-2.484.736-3.956.154-1.503.276-3.051.368-4.646l.368-8.234h18.906v22.31h-4.416Zm-20.562 7.728v-9.522h28.704v9.522h-4.14V44h-20.378v5.658h-4.186ZM237.602 44V19.62h4.416v10.35h13.892V19.62h4.416V44h-4.416V33.788h-13.892V44h-4.416Zm46.905 0v-8.556l.69.828h-7.774c-3.251 0-5.796-.69-7.636-2.07-1.81-1.38-2.714-3.389-2.714-6.026 0-2.821.966-4.953 2.898-6.394 1.962-1.441 4.569-2.162 7.82-2.162h10.672V44h-3.956Zm-17.664 0 6.624-9.338h4.554L271.581 44h-4.738Zm17.664-9.936V22.242l.69 1.242h-7.268c-2.024 0-3.588.383-4.692 1.15-1.104.736-1.656 1.963-1.656 3.68 0 3.19 2.054 4.784 6.164 4.784h7.452l-.69.966ZM324.382 44v-5.152l-.23-.966v-8.786c0-1.87-.552-3.312-1.656-4.324-1.073-1.043-2.698-1.564-4.876-1.564-1.441 0-2.852.245-4.232.736-1.38.46-2.545 1.089-3.496 1.886l-1.84-3.312c1.258-1.012 2.76-1.779 4.508-2.3a18.672 18.672 0 0 1 5.566-.828c3.343 0 5.919.813 7.728 2.438 1.81 1.625 2.714 4.11 2.714 7.452V44h-4.186Zm-8.004.276c-1.809 0-3.404-.307-4.784-.92-1.349-.613-2.392-1.457-3.128-2.53-.736-1.104-1.104-2.346-1.104-3.726 0-1.319.307-2.515.92-3.588.644-1.073 1.672-1.932 3.082-2.576 1.442-.644 3.374-.966 5.796-.966h7.728v3.174h-7.544c-2.208 0-3.695.368-4.462 1.104-.766.736-1.15 1.625-1.15 2.668 0 1.196.476 2.162 1.426 2.898.951.705 2.27 1.058 3.956 1.058 1.656 0 3.098-.368 4.324-1.104 1.258-.736 2.162-1.81 2.714-3.22l.874 3.036c-.582 1.441-1.61 2.591-3.082 3.45-1.472.828-3.327 1.242-5.566 1.242ZM354.184 44l-9.43-11.868 3.634-2.208L359.382 44h-5.198Zm-17.664 0V19.62h4.416V44h-4.416Zm3.082-10.304v-3.772h8.05v3.772h-8.05Zm9.154-1.38-4.094-.552L354 19.62h4.738l-9.982 12.696ZM368.438 44V22.334l1.104 1.15h-10.028V19.62h22.264v3.864h-9.982l1.058-1.15V44h-4.416Zm17.856 0V19.62h4.416v17.756l14.95-17.756h4.002V44h-4.416V26.244L390.342 44h-4.048Zm31.939 0V19.62h11.316c2.852 0 5.091.552 6.716 1.656 1.656 1.073 2.484 2.607 2.484 4.6 0 1.993-.782 3.542-2.346 4.646-1.533 1.073-3.573 1.61-6.118 1.61l.69-1.196c2.913 0 5.075.537 6.486 1.61 1.411 1.073 2.116 2.653 2.116 4.738 0 2.116-.797 3.772-2.392 4.968-1.564 1.165-3.971 1.748-7.222 1.748h-11.73Zm4.324-3.404h7.084c1.84 0 3.22-.276 4.14-.828.92-.583 1.38-1.503 1.38-2.76 0-1.288-.429-2.223-1.288-2.806-.828-.613-2.147-.92-3.956-.92h-7.36v7.314Zm0-10.488h6.624c1.687 0 2.959-.307 3.818-.92.889-.644 1.334-1.533 1.334-2.668 0-1.165-.445-2.04-1.334-2.622-.859-.583-2.131-.874-3.818-.874h-6.624v7.084ZM446.489 44V19.62h4.416v10.35h13.892V19.62h4.416V44h-4.416V33.788h-13.892V44h-4.416Zm41.752.276c-2.453 0-4.63-.537-6.532-1.61a11.986 11.986 0 0 1-4.508-4.416c-1.104-1.901-1.656-4.048-1.656-6.44 0-2.423.552-4.57 1.656-6.44a11.649 11.649 0 0 1 4.508-4.37c1.902-1.073 4.079-1.61 6.532-1.61 2.423 0 4.585.537 6.486 1.61 1.932 1.043 3.435 2.5 4.508 4.37 1.104 1.84 1.656 3.987 1.656 6.44 0 2.423-.552 4.57-1.656 6.44-1.073 1.87-2.576 3.343-4.508 4.416-1.901 1.073-4.063 1.61-6.486 1.61Zm0-3.864c1.564 0 2.96-.353 4.186-1.058a7.46 7.46 0 0 0 2.944-2.99c.706-1.319 1.058-2.837 1.058-4.554 0-1.748-.352-3.25-1.058-4.508a7.46 7.46 0 0 0-2.944-2.99c-1.226-.705-2.622-1.058-4.186-1.058s-2.959.353-4.186 1.058c-1.226.705-2.208 1.702-2.944 2.99-.736 1.257-1.104 2.76-1.104 4.508 0 1.717.368 3.235 1.104 4.554.736 1.288 1.718 2.285 2.944 2.99 1.227.705 2.622 1.058 4.186 1.058Zm41.823 3.864c-2.454 0-4.631-.537-6.532-1.61a11.979 11.979 0 0 1-4.508-4.416c-1.104-1.901-1.656-4.048-1.656-6.44 0-2.423.552-4.57 1.656-6.44a11.642 11.642 0 0 1 4.508-4.37c1.901-1.073 4.078-1.61 6.532-1.61 2.422 0 4.584.537 6.486 1.61 1.932 1.043 3.434 2.5 4.508 4.37 1.104 1.84 1.656 3.987 1.656 6.44 0 2.423-.552 4.57-1.656 6.44-1.074 1.87-2.576 3.343-4.508 4.416-1.902 1.073-4.064 1.61-6.486 1.61Zm0-3.864c1.564 0 2.959-.353 4.186-1.058a7.473 7.473 0 0 0 2.944-2.99c.705-1.319 1.058-2.837 1.058-4.554 0-1.748-.353-3.25-1.058-4.508a7.473 7.473 0 0 0-2.944-2.99c-1.227-.705-2.622-1.058-4.186-1.058s-2.96.353-4.186 1.058c-1.227.705-2.208 1.702-2.944 2.99-.736 1.257-1.104 2.76-1.104 4.508 0 1.717.368 3.235 1.104 4.554.736 1.288 1.717 2.285 2.944 2.99 1.226.705 2.622 1.058 4.186 1.058Zm30.297 3.956c-2.024 0-3.818-.322-5.382-.966a10.726 10.726 0 0 1-3.956-2.852c-1.104-1.288-1.948-2.898-2.53-4.83-.552-1.963-.828-4.263-.828-6.9 0-2.085.184-3.956.552-5.612.368-1.656.889-3.128 1.564-4.416a13.383 13.383 0 0 1 2.576-3.358 14.24 14.24 0 0 1 3.496-2.346 18.876 18.876 0 0 1 4.324-1.472l11.132-2.484.644 4.094-10.258 2.208c-.614.123-1.35.307-2.208.552-.859.245-1.733.629-2.622 1.15-.89.49-1.718 1.18-2.484 2.07-.767.89-1.38 2.055-1.84 3.496-.46 1.41-.69 3.159-.69 5.244 0 .583.015 1.027.046 1.334l.092.92c.061.307.107.767.138 1.38l-1.84-1.886c.49-1.687 1.272-3.159 2.346-4.416a10.875 10.875 0 0 1 3.864-2.898c1.533-.705 3.204-1.058 5.014-1.058 2.269 0 4.278.49 6.026 1.472 1.778.981 3.174 2.33 4.186 4.048 1.012 1.717 1.518 3.68 1.518 5.888 0 2.239-.537 4.247-1.61 6.026-1.043 1.748-2.53 3.128-4.462 4.14-1.932.981-4.202 1.472-6.808 1.472Zm.414-3.68c1.564 0 2.944-.337 4.14-1.012a7.697 7.697 0 0 0 2.806-2.806c.674-1.196 1.012-2.53 1.012-4.002s-.338-2.775-1.012-3.91a7.127 7.127 0 0 0-2.806-2.668c-1.196-.675-2.607-1.012-4.232-1.012-1.534 0-2.914.322-4.14.966-1.227.613-2.178 1.487-2.852 2.622-.675 1.104-1.012 2.392-1.012 3.864s.337 2.821 1.012 4.048a7.942 7.942 0 0 0 2.852 2.852c1.226.705 2.637 1.058 4.232 1.058Zm29.399 3.588c-2.484 0-4.708-.537-6.67-1.61-1.932-1.073-3.45-2.545-4.554-4.416-1.104-1.87-1.656-4.017-1.656-6.44s.552-4.57 1.656-6.44a11.562 11.562 0 0 1 4.554-4.37c1.962-1.073 4.186-1.61 6.67-1.61 2.208 0 4.17.445 5.888 1.334 1.748.859 3.097 2.147 4.048 3.864l-3.358 2.162c-.798-1.196-1.779-2.07-2.944-2.622a7.941 7.941 0 0 0-3.68-.874c-1.595 0-3.021.353-4.278 1.058-1.258.705-2.254 1.702-2.99 2.99-.736 1.257-1.104 2.76-1.104 4.508 0 1.748.368 3.266 1.104 4.554.736 1.288 1.732 2.285 2.99 2.99 1.257.705 2.683 1.058 4.278 1.058a8.303 8.303 0 0 0 3.68-.828c1.165-.583 2.146-1.472 2.944-2.668l3.358 2.116c-.951 1.687-2.3 2.99-4.048 3.91-1.718.89-3.68 1.334-5.888 1.334Zm16.58 8.924c-1.165 0-2.3-.2-3.404-.598-1.104-.368-2.054-.92-2.852-1.656l1.886-3.312a6.636 6.636 0 0 0 2.024 1.334c.736.307 1.518.46 2.346.46 1.074 0 1.963-.276 2.668-.828.706-.552 1.365-1.533 1.978-2.944l1.518-3.358.46-.552 9.568-22.126h4.324l-11.822 26.818c-.705 1.717-1.502 3.067-2.392 4.048-.858.981-1.809 1.671-2.852 2.07-1.042.43-2.192.644-3.45.644Zm5.796-8.418L601.418 19.62h4.6l9.476 21.712-2.944 3.45ZM659.333 44l-7.774-11.868 3.634-2.208L664.577 44h-5.244Zm-12.834-10.304v-3.772h7.912v3.772h-7.912Zm9.108-1.38-4.186-.552 7.774-12.144h4.738l-8.326 12.696ZM631.963 44h-5.244l9.338-14.076 3.634 2.208L631.963 44Zm15.87 0h-4.416V19.62h4.416V44Zm-3.082-10.304h-7.866v-3.772h7.866v3.772Zm-9.062-1.38-8.326-12.696h4.692l7.774 12.144-4.14.552Zm50.399 9.614V23.484h-10.58l-.23 4.692a67.131 67.131 0 0 1-.322 4.462 24.085 24.085 0 0 1-.644 3.91c-.276 1.196-.69 2.177-1.242 2.944a3.47 3.47 0 0 1-2.208 1.426l-4.37-.782c.951.03 1.718-.276 2.3-.92.583-.675 1.028-1.595 1.334-2.76.338-1.165.583-2.484.736-3.956.154-1.503.276-3.051.368-4.646l.368-8.234h18.906v22.31h-4.416Zm-20.562 7.728v-9.522h28.704v9.522h-4.14V44h-20.378v5.658h-4.186ZM714.933 44v-5.152l-.23-.966v-8.786c0-1.87-.552-3.312-1.656-4.324-1.073-1.043-2.699-1.564-4.876-1.564-1.441 0-2.852.245-4.232.736-1.38.46-2.545 1.089-3.496 1.886l-1.84-3.312c1.257-1.012 2.76-1.779 4.508-2.3a18.672 18.672 0 0 1 5.566-.828c3.343 0 5.919.813 7.728 2.438 1.809 1.625 2.714 4.11 2.714 7.452V44h-4.186Zm-8.004.276c-1.809 0-3.404-.307-4.784-.92-1.349-.613-2.392-1.457-3.128-2.53-.736-1.104-1.104-2.346-1.104-3.726 0-1.319.307-2.515.92-3.588.644-1.073 1.671-1.932 3.082-2.576 1.441-.644 3.373-.966 5.796-.966h7.728v3.174h-7.544c-2.208 0-3.695.368-4.462 1.104-.767.736-1.15 1.625-1.15 2.668 0 1.196.475 2.162 1.426 2.898.951.705 2.269 1.058 3.956 1.058 1.656 0 3.097-.368 4.324-1.104 1.257-.736 2.162-1.81 2.714-3.22l.874 3.036c-.583 1.441-1.61 2.591-3.082 3.45-1.472.828-3.327 1.242-5.566 1.242ZM727.071 44V19.62h4.416v9.982h7.36v4.094h-7.36V44h-4.416Zm21.574.276c-2.392 0-4.523-.537-6.394-1.61a11.84 11.84 0 0 1-4.37-4.416c-1.073-1.901-1.61-4.048-1.61-6.44 0-2.423.537-4.57 1.61-6.44 1.073-1.901 2.53-3.373 4.37-4.416 1.871-1.043 4.002-1.564 6.394-1.564 2.361 0 4.477.521 6.348 1.564 1.871 1.043 3.343 2.515 4.416 4.416 1.073 1.87 1.61 4.017 1.61 6.44s-.537 4.57-1.61 6.44a11.736 11.736 0 0 1-4.416 4.416c-1.871 1.073-3.987 1.61-6.348 1.61Zm0-3.864c1.533 0 2.898-.353 4.094-1.058a8.093 8.093 0 0 0 2.852-2.99c.705-1.288 1.058-2.806 1.058-4.554 0-1.748-.353-3.25-1.058-4.508-.705-1.288-1.656-2.285-2.852-2.99-1.196-.705-2.561-1.058-4.094-1.058-1.503 0-2.867.353-4.094 1.058-1.196.705-2.147 1.702-2.852 2.99-.705 1.257-1.058 2.76-1.058 4.508 0 1.748.353 3.266 1.058 4.554a8.093 8.093 0 0 0 2.852 2.99c1.227.705 2.591 1.058 4.094 1.058ZM771.297 44V22.334l1.104 1.15h-10.028V19.62h22.264v3.864h-9.982l1.058-1.15V44h-4.416Z" fill="#231C29"/></svg>