<svg width="413" height="56" fill="none" xmlns="http://www.w3.org/2000/svg"><path d="M3.496 44.368c-.46 0-.92-.03-1.38-.092A17.78 17.78 0 0 1 .598 44l.322-4.094c.49.123.981.184 1.472.184 1.35 0 2.423-.537 3.22-1.61.797-1.073 1.38-2.699 1.748-4.876.399-2.177.66-4.922.782-8.234l.506-13.57h22.678V44h-4.508V14.606l1.104 1.196h-16.33l1.012-1.242-.368 10.672c-.092 3.19-.307 5.98-.644 8.372-.337 2.392-.843 4.385-1.518 5.98-.675 1.595-1.549 2.79-2.622 3.588-1.043.797-2.361 1.196-3.956 1.196ZM40.62 44V19.62h4.416v17.756l14.95-17.756h4.002V44h-4.416V26.244L44.668 44H40.62Zm42.565.276c-2.484 0-4.707-.537-6.67-1.61-1.932-1.073-3.45-2.545-4.554-4.416-1.104-1.87-1.656-4.017-1.656-6.44s.552-4.57 1.656-6.44A11.562 11.562 0 0 1 76.515 21c1.963-1.073 4.186-1.61 6.67-1.61 2.208 0 4.17.445 5.888 1.334 1.748.859 3.098 2.147 4.048 3.864l-3.358 2.162c-.797-1.196-1.778-2.07-2.944-2.622a7.939 7.939 0 0 0-3.68-.874c-1.594 0-3.02.353-4.278 1.058-1.257.705-2.254 1.702-2.99 2.99-.736 1.257-1.104 2.76-1.104 4.508 0 1.748.368 3.266 1.104 4.554.736 1.288 1.733 2.285 2.99 2.99 1.258.705 2.684 1.058 4.278 1.058a8.3 8.3 0 0 0 3.68-.828c1.166-.583 2.147-1.472 2.944-2.668l3.358 2.116c-.95 1.687-2.3 2.99-4.048 3.91-1.717.89-3.68 1.334-5.888 1.334ZM103.354 44V22.334l1.104 1.15H94.43V19.62h22.264v3.864h-9.982l1.058-1.15V44h-4.416Zm32.806 0v-5.152l-.23-.966v-8.786c0-1.87-.552-3.312-1.656-4.324-1.074-1.043-2.699-1.564-4.876-1.564-1.442 0-2.852.245-4.232.736-1.38.46-2.546 1.089-3.496 1.886l-1.84-3.312c1.257-1.012 2.76-1.779 4.508-2.3a18.667 18.667 0 0 1 5.566-.828c3.342 0 5.918.813 7.728 2.438 1.809 1.625 2.714 4.11 2.714 7.452V44h-4.186Zm-8.004.276c-1.81 0-3.404-.307-4.784-.92-1.35-.613-2.392-1.457-3.128-2.53-.736-1.104-1.104-2.346-1.104-3.726 0-1.319.306-2.515.92-3.588.644-1.073 1.671-1.932 3.082-2.576 1.441-.644 3.373-.966 5.796-.966h7.728v3.174h-7.544c-2.208 0-3.696.368-4.462 1.104-.767.736-1.15 1.625-1.15 2.668 0 1.196.475 2.162 1.426 2.898.95.705 2.269 1.058 3.956 1.058 1.656 0 3.097-.368 4.324-1.104 1.257-.736 2.162-1.81 2.714-3.22l.874 3.036c-.583 1.441-1.61 2.591-3.082 3.45-1.472.828-3.328 1.242-5.566 1.242ZM148.298 44V19.62h4.416v17.756l14.95-17.756h4.002V44h-4.416V26.244L152.346 44h-4.048Zm11.408-27.554c-2.239 0-4.002-.537-5.29-1.61-1.258-1.104-1.902-2.683-1.932-4.738h2.99c.03 1.165.414 2.085 1.15 2.76.766.675 1.778 1.012 3.036 1.012 1.257 0 2.269-.337 3.036-1.012.766-.675 1.165-1.595 1.196-2.76h3.082c-.031 2.055-.69 3.634-1.978 4.738-1.288 1.073-3.052 1.61-5.29 1.61Zm28.837 27.508.276-3.726c.214.03.414.061.598.092.184.03.352.046.506.046.981 0 1.748-.337 2.3-1.012.582-.675 1.012-1.564 1.288-2.668.276-1.135.475-2.407.598-3.818a98.5 98.5 0 0 0 .275-4.232l.415-9.016h18.722V44h-4.416V22.196l1.058 1.288h-12.512l1.012-1.334-.322 6.762a69.393 69.393 0 0 1-.506 6.026c-.246 1.87-.629 3.511-1.15 4.922-.491 1.41-1.181 2.515-2.07 3.312-.859.797-1.978 1.196-3.358 1.196-.399 0-.828-.046-1.288-.138-.43-.061-.905-.153-1.426-.276Zm44.372.322c-2.606 0-4.906-.537-6.9-1.61-1.962-1.073-3.496-2.545-4.6-4.416-1.073-1.87-1.61-4.017-1.61-6.44s.522-4.57 1.564-6.44c1.074-1.87 2.53-3.327 4.37-4.37 1.871-1.073 3.972-1.61 6.302-1.61 2.362 0 4.447.521 6.256 1.564 1.81 1.043 3.22 2.515 4.232 4.416 1.043 1.87 1.564 4.063 1.564 6.578 0 .184-.015.399-.046.644 0 .245-.015.475-.046.69h-20.746v-3.174h18.446l-1.794 1.104c.031-1.564-.291-2.96-.966-4.186a7.17 7.17 0 0 0-2.806-2.852c-1.165-.705-2.53-1.058-4.094-1.058-1.533 0-2.898.353-4.094 1.058-1.196.675-2.131 1.64-2.806 2.898-.674 1.227-1.012 2.637-1.012 4.232v.736c0 1.625.368 3.082 1.104 4.37.767 1.257 1.825 2.239 3.174 2.944 1.35.705 2.898 1.058 4.646 1.058 1.442 0 2.745-.245 3.91-.736a8.565 8.565 0 0 0 3.128-2.208l2.438 2.852c-1.104 1.288-2.484 2.27-4.14 2.944-1.625.675-3.45 1.012-5.474 1.012ZM250.944 44V19.62h4.416v10.35h13.892V19.62h4.416V44h-4.416V33.788H255.36V44h-4.416Zm36.141 0V22.334l1.104 1.15h-10.028V19.62h22.264v3.864h-9.982l1.058-1.15V44h-4.416Zm19.097 9.2c-1.165 0-2.3-.2-3.404-.598-1.104-.368-2.055-.92-2.852-1.656l1.886-3.312a6.624 6.624 0 0 0 2.024 1.334c.736.307 1.518.46 2.346.46 1.073 0 1.963-.276 2.668-.828.705-.552 1.365-1.533 1.978-2.944l1.518-3.358.46-.552 9.568-22.126h4.324l-11.822 26.818c-.705 1.717-1.503 3.067-2.392 4.048-.859.981-1.809 1.671-2.852 2.07-1.043.43-2.193.644-3.45.644Zm5.796-8.418L300.846 19.62h4.6l9.476 21.712-2.944 3.45Z" fill="#F5A803"/></svg>