<svg width="438" height="128" fill="#03174B" xmlns="http://www.w3.org/2000/svg"><path d="m63.302 61.475 2.157 6.853h.72l2.156-6.853L105.918 0h25.719v128h-27.876V59.854l1.977-12.079h-.719l-4.674 11.898-24.995 40.924H56.287L31.291 59.673l-4.678-11.898h-.719l1.982 12.079V128H0V0h25.715l37.587 61.475ZM163.259 51.2l-19.064-19.11L176.206 0h21.94v103.662h16.362V128h-60.601v-24.338h16.362V46.513l2.337-6.31-.539-.36-3.775 6.31-5.033 5.047Zm126.583 4.145 7.554-8.652v-13.34l-7.195-7.213h-32.549l-22.839 7.213-7.73-24.88L254.236 0h48.193l22.838 23.076v32.45l-17.8 20.012-46.76 26.321h64.56V128H229.06V89.42l60.782-34.075ZM436.202 0v26.14h-63.84v21.094h42.62L438 70.13v34.975L414.982 128h-46.576l-26.976-9.014 8.273-24.88 23.198 7.753h29.853l7.371-7.211V80.586l-7.371-7.21H344.49V0h91.712Z"/></svg>