<svg width="1680" height="480" fill="none" xmlns="http://www.w3.org/2000/svg"><g clip-path="url(#a)"><mask id="b" style="mask-type:luminance" maskUnits="userSpaceOnUse" x="0" y="0" width="1680" height="480"><path d="M1680 0H0v480h1680V0Z" fill="#fff"/></mask><g mask="url(#b)" fill="#fff"><path d="m242.801 230.534 8.275 25.697h2.758l8.275-25.697L406.262 0h98.648v480H397.987V224.451l7.584-45.295h-2.757l-17.928 44.618-95.873 153.466h-73.116l-95.876-153.466-17.944-44.618H99.32l7.603 45.295V480H0V0h98.633L242.8 230.534Zm383.397-38.532-73.121-71.666L675.859 0h84.152v388.733h62.757V480H590.326v-91.267h62.762V174.425l8.962-23.661-2.065-1.355-14.481 23.662-19.306 18.931Zm485.522 15.543 28.98-32.446v-50.025l-27.6-27.048H988.253l-87.602 27.048-29.646-93.302L975.151 0H1160l87.6 86.535v121.687l-68.28 75.047-179.348 98.701H1247.6V480H878.589V335.321l233.131-127.776ZM1673.1 0v98.026h-244.86v79.103h163.47l88.29 85.856v131.157L1591.71 480h-178.64l-103.48-33.804 31.74-93.295 88.98 29.069h114.5l28.27-27.041v-52.731l-28.27-27.036h-223.48V0h351.77Z"/></g></g><defs><clipPath id="a"><path fill="#fff" d="M0 0h1680v480H0z"/></clipPath></defs></svg>