<svg width="24" height="24" fill="none" xmlns="http://www.w3.org/2000/svg"><path d="M12 2c5.514 0 10 4.486 10 10s-4.486 10-10 10S2 17.514 2 12 6.486 2 12 2Zm0-2C5.373 0 0 5.373 0 12s5.373 12 12 12 12-5.373 12-12S18.627 0 12 0Zm.581 15.997c.304 0 .429-.204.425-.458-.016-.958.356-1.474 1.03-.802.744.744.896 1.26 1.801 1.26h1.601c.403 0 .562-.13.562-.334 0-.432-.711-1.194-1.312-1.752-.844-.783-.882-.802-.156-1.744.9-1.169 2.079-2.667 1.037-2.667h-1.991c-.387 0-.414.217-.551.542-.498 1.173-1.443 2.693-1.803 2.461-.377-.243-.204-1.203-.175-2.63.008-.377.006-.636-.571-.77A4.005 4.005 0 0 0 11.575 9c-1.137 0-1.922.477-1.477.56.785.146.711 1.846.527 2.58-.319 1.278-1.518-1.012-2.018-2.152-.12-.275-.155-.488-.586-.488H6.394c-.247 0-.394.08-.394.258 0 .301 1.479 3.36 2.892 4.885 1.379 1.487 2.742 1.354 3.689 1.354Z" fill="#03174B"/></svg>